# xmcd CD database file
#
# Track frame offsets:
#	150
#	15692
#	31202
#	42727
#	55030
#	67997
#	86172
#	110422
#	127195
#	141992
#	158977
#	172340
#	194037
#	207492
#
# Disc length: 2941 seconds
#
# Revision: 0
# Processed by: cddbd v1.4PL0 Copyright (c) Steve Scherf et al.
# Submitted via: CDex 1.40Release
#
DISCID=da0b7b0e
DTITLE=All time best Blues - Best of
DYEAR=1997
DGENRE=Blues
TTITLE0=Ike and Tina Turner- Why I sing the blues
TTITLE1=Bo Didley- Roadrunner
TTITLE2=Screamin Jay Hawkins- The Whammy
TTITLE3=Buddy Guy- You sure can't do
TTITLE4=Muddy Waters- So glad I'm livin
TTITLE5=Tommy Tucker- Hi Heel Sneakers
TTITLE6=Buddy Guy and Junior Wells- Country girl
TTITLE7=Charlie Musselwhite- Trouble no more
TTITLE8=Billi Boy Arnold and Tony McPhee- Don't stay out all night
TTITLE9=Albert Collins- Deep Freeze
TTITLE10=Howlin' Wolf- I'm worried about you baby
TTITLE11=Lightnin' Hopkins- I wish I was a baby
TTITLE12=Jimmy Reed- Hard Walkin' Hanna
TTITLE13=Elmore James- Dust my room
EXTD=YEAR: 1997 ID3G: 0
EXTT0=
EXTT1=
EXTT2=
EXTT3=
EXTT4=
EXTT5=
EXTT6=
EXTT7=
EXTT8=
EXTT9=
EXTT10=
EXTT11=
EXTT12=
EXTT13=
PLAYORDER=
